<?xml version="1.0" encoding="UTF-8" standalone="no"?>
<!-- Created with Inkscape (http://www.inkscape.org/) -->

<svg
   width="221.09178mm"
   height="121.73544mm"
   viewBox="0 0 221.09178 121.73544"
   version="1.1"
   id="svg1"
   inkscape:version="1.3.2 (091e20e, 2023-11-25)"
   sodipodi:docname="logo.svg"
   xmlns:inkscape="http://www.inkscape.org/namespaces/inkscape"
   xmlns:sodipodi="http://sodipodi.sourceforge.net/DTD/sodipodi-0.dtd"
   xmlns="http://www.w3.org/2000/svg"
   xmlns:svg="http://www.w3.org/2000/svg">
  <sodipodi:namedview
     id="namedview1"
     pagecolor="#ffffff"
     bordercolor="#000000"
     borderopacity="0.25"
     inkscape:showpageshadow="2"
     inkscape:pageopacity="0.0"
     inkscape:pagecheckerboard="0"
     inkscape:deskcolor="#d1d1d1"
     inkscape:document-units="mm"
     inkscape:zoom="0.92737795"
     inkscape:cx="397.35687"
     inkscape:cy="449.1157"
     inkscape:window-width="2560"
     inkscape:window-height="1412"
     inkscape:window-x="0"
     inkscape:window-y="28"
     inkscape:window-maximized="0"
     inkscape:current-layer="layer1" />
  <defs
     id="defs1" />
  <g
     inkscape:label="Capa 1"
     inkscape:groupmode="layer"
     id="layer1">
    <path
       id="path1-0-9-8"
       style="color:#000000;fill:#000000;fill-opacity:1;stroke-width:1;stroke-linecap:square;stroke-linejoin:round;-inkscape-stroke:none"
       d="M 60.87138,0 C 27.44652,0 0,27.449 0,60.873884 c 0,33.424884 27.44652,60.861556 60.87138,60.861556 20.441052,0 38.63496,-10.26736 49.69054,-25.884216 11.05517,15.610036 29.22414,25.884216 49.65849,25.884216 33.42486,0 60.87137,-27.436672 60.87137,-60.861556 C 221.09178,27.449 193.64527,0 160.22041,0 139.78632,0 121.61435,10.274092 110.55944,25.886684 99.503224,10.26894 81.310332,0 60.87138,0 Z m 0,32.233872 c 13.895564,0 25.233592,9.531468 27.981864,22.517128 h 32.569166 c -0.56037,-5.52054 -1.87964,-10.82724 -3.83295,-15.824844 l 17.45908,8.146588 c 4.8154,-8.894848 14.19779,-14.838868 25.17187,-14.838868 16.00304,0 28.62768,12.636924 28.62768,28.640008 0,16.003084 -12.62464,28.627684 -28.62768,28.627684 -11.0788,0 -20.52952,-6.056688 -25.30253,-15.090292 L 117.73736,82.42722 C 119.608,77.5419 120.87721,72.3667 121.42241,66.986908 H 88.853244 c -2.745668,12.987424 -14.08382,22.51466 -27.981864,22.51466 -16.003016,0 -28.62768,-12.6246 -28.62768,-28.627684 0,-16.003088 12.624664,-28.640012 28.62768,-28.640012 z" />
  </g>
</svg>
