<svg xmlns="http://www.w3.org/2000/svg" viewBox="0 0 638.5 250.57"><g id="Capa_2" data-name="Capa 2"><g id="Capa_1-2" data-name="Capa 1"><path d="M629.11,169.83A25,25,0,0,0,594,173.75c-3.56,4.45-23.45,26.6-66.36,26.81a75.08,75.08,0,0,1-74.61-75c0-.1,0-.19,0-.29s0-.18,0-.28a75.07,75.07,0,0,1,74.61-75c42.91.21,62.8,22.36,66.36,26.81A25,25,0,0,0,633,45.61C624.58,35,592.35.89,529.39,0c-.46,0-.93,0-1.39,0h-1c-.34,0-.67,0-1,0A124.91,124.91,0,0,0,426.88,51.6a124.86,124.86,0,0,0-197.54-3.06,113.75,113.75,0,0,0-24.38-28A25,25,0,0,0,173.74,59.6c4.46,3.56,26.61,23.45,26.82,66.34a75.1,75.1,0,0,1-75,74.63H125A75.08,75.08,0,0,1,50,126c.21-42.91,22.36-62.8,26.81-66.36A25,25,0,1,0,45.6,20.54C35,29,.89,61.21,0,124.18c0,.46,0,.92,0,1.39,0,.19,0,.38,0,.57s0,.28,0,.43c0,.34,0,.67,0,1a125.13,125.13,0,0,0,125,123h.57a124.89,124.89,0,0,0,100.67-51,124.88,124.88,0,0,0,201.22.19A124.87,124.87,0,0,0,526,250.54c.34,0,.67,0,1,0h1c.46,0,.93,0,1.39,0,63-.85,95.19-35,103.64-45.57A25,25,0,0,0,629.11,169.83ZM326.92,200.57a74.5,74.5,0,1,1,75-74.5A75.08,75.08,0,0,1,326.92,200.57Z"/></g></g></svg>